<svg xmlns="http://www.w3.org/2000/svg" viewBox="0 0 500 500">
  <g fill="#ffffff">
    <path d="M250 100c82.8 0 150 67.2 150 150 0 82.8-67.2 150-150 150-27.3 0-52.9-7.3-75-20.1l-75 20.1 20.1-75C107.3 302.9 100 277.3 100 250c0-82.8 67.2-150 150-150z"/>
    <circle cx="250" cy="250" r="40"/>
    <circle cx="180" cy="250" r="15"/>
    <circle cx="320" cy="250" r="15"/>
    <path d="M250 310c-33.1 0-60-26.9-60-60s26.9-60 60-60 60 26.9 60 60-26.9 60-60 60zm0-100c-22.1 0-40 17.9-40 40s17.9 40 40 40 40-17.9 40-40-17.9-40-40-40z"/>
    <path d="M250 150c55.2 0 100 44.8 100 100s-44.8 100-100 100-100-44.8-100-100 44.8-100 100-100zm0-20c-66.3 0-120 53.7-120 120s53.7 120 120 120 120-53.7 120-120-53.7-120-120-120z"/>
  </g>
</svg>