<?xml version="1.0" standalone="no"?>
<!DOCTYPE svg PUBLIC "-//W3C//DTD SVG 20010904//EN"
 "http://www.w3.org/TR/2001/REC-SVG-20010904/DTD/svg10.dtd">
<svg version="1.0" xmlns="http://www.w3.org/2000/svg"
 width="1024.000000pt" height="1024.000000pt" viewBox="0 0 1024.000000 1024.000000"
 preserveAspectRatio="xMidYMid meet">

<g transform="translate(0.000000,1024.000000) scale(0.100000,-0.100000)"
fill="#000000" stroke="none">
<path d="M3402 8684 c-59 -29 -94 -70 -117 -133 -39 -112 9 -265 94 -301 l31
-12 0 -370 c0 -203 -3 -367 -7 -365 -18 10 -149 -14 -198 -37 -63 -29 -137
-94 -159 -139 -14 -31 -20 -34 -92 -46 -617 -103 -956 -497 -1023 -1185 -24
-247 -8 -575 39 -755 151 -591 588 -880 1370 -907 91 -3 173 -7 183 -9 10 -2
105 1 212 6 489 22 774 115 1035 340 124 106 242 288 291 450 20 65 22 67 67
85 69 26 153 114 181 189 31 83 41 150 41 290 0 135 -15 210 -57 288 -31 56
-100 121 -147 138 -30 11 -32 15 -49 104 -31 172 -103 353 -194 494 -51 78
-214 238 -299 294 -133 88 -368 168 -535 184 -62 5 -72 9 -80 29 -31 83 -173
170 -296 182 l-66 7 0 45 c0 25 0 116 1 202 l2 158 203 3 202 2 -207 3 -208 2
0 158 0 157 35 19 c123 66 142 277 34 385 -74 74 -193 92 -287 45z m603 -1589
c270 -43 461 -125 604 -261 233 -219 345 -600 327 -1109 -14 -405 -113 -647
-340 -830 -156 -126 -335 -194 -618 -236 -128 -18 -417 -27 -603 -19 -579 28
-887 156 -1080 450 -109 166 -162 375 -172 675 -21 624 169 1044 550 1220 133
61 314 104 529 125 149 14 685 4 803 -15z"/>
<path d="M2800 6129 c-36 -15 -78 -58 -103 -104 -31 -57 -31 -183 0 -241 78
-148 256 -148 328 -1 54 112 24 264 -64 323 -46 30 -120 41 -161 23z"/>
<path d="M4175 6126 c-126 -58 -163 -273 -68 -387 38 -45 104 -73 157 -65 179
27 233 308 83 430 -44 35 -123 45 -172 22z"/>
<path d="M3111 5494 c-29 -37 -26 -80 8 -139 75 -130 244 -215 427 -215 152 0
273 45 376 139 92 84 117 172 63 218 -26 23 -69 30 -93 14 -7 -4 -27 -30 -45
-56 -66 -100 -159 -145 -301 -145 -129 1 -239 56 -293 147 -29 49 -49 63 -92
63 -20 0 -36 -8 -50 -26z"/>
<path d="M3248 7913 c28 -2 76 -2 105 0 28 2 5 3 -53 3 -58 0 -81 -1 -52 -3z"/>
<path d="M3088 7903 c18 -2 45 -2 60 0 15 2 0 4 -33 4 -33 0 -45 -2 -27 -4z"/>
<path d="M4103 7903 c15 -2 39 -2 55 0 15 2 2 4 -28 4 -30 0 -43 -2 -27 -4z"/>
<path d="M2925 7885 c-80 -17 -40 -17 55 0 42 7 60 13 40 13 -19 0 -62 -6 -95
-13z"/>
<path d="M4265 7885 c88 -15 141 -18 85 -5 -19 5 -64 11 -100 14 l-65 5 80
-14z"/>
<path d="M2713 7836 c-62 -18 -116 -36 -120 -41 -5 -4 1 -5 12 -1 11 4 74 23
140 41 66 19 111 34 100 34 -11 0 -71 -15 -132 -33z"/>
<path d="M4398 7863 c6 -2 18 -2 25 0 6 3 1 5 -13 5 -14 0 -19 -2 -12 -5z"/>
<path d="M4448 7853 c7 -3 16 -2 19 1 4 3 -2 6 -13 5 -11 0 -14 -3 -6 -6z"/>
<path d="M4539 7829 c36 -10 67 -17 69 -15 5 5 -102 36 -120 35 -7 0 16 -9 51
-20z"/>
<path d="M4646 7796 c50 -22 82 -27 39 -7 -22 11 -47 20 -55 20 -8 0 -1 -6 16
-13z"/>
<path d="M2510 7766 c-68 -28 -160 -75 -160 -81 0 -2 37 13 83 34 45 21 98 45
117 54 54 24 22 19 -40 -7z"/>
<path d="M4770 7745 c25 -13 50 -24 55 -24 6 0 -10 11 -35 24 -25 13 -49 24
-55 24 -5 0 10 -11 35 -24z"/>
<path d="M4860 7706 c0 -2 7 -7 16 -10 8 -3 12 -2 9 4 -6 10 -25 14 -25 6z"/>
<path d="M4914 7678 c11 -7 63 -42 115 -77 126 -84 200 -143 290 -234 l74 -75
-22 -28 c-11 -15 -30 -56 -41 -91 -18 -58 -20 -93 -20 -332 0 -332 10 -377
103 -479 50 -53 96 -84 161 -106 43 -15 187 -16 1446 -17 1567 -1 1445 -7
1561 72 93 63 144 147 159 262 12 95 12 449 0 523 -22 133 -102 238 -228 297
l-67 32 -1425 0 -1425 0 -65 -31 c-36 -17 -80 -45 -99 -63 l-33 -31 -107 102
c-107 104 -246 209 -343 261 -29 15 -44 22 -34 15z m1616 -644 l0 -95 26 20
c32 26 102 28 145 5 48 -24 59 -65 59 -219 l0 -135 -50 0 -50 0 0 118 c0 90
-4 123 -16 140 -19 28 -67 29 -94 2 -18 -18 -20 -33 -20 -140 l0 -120 -50 0
-50 0 0 260 0 260 50 0 50 0 0 -96z m800 -9 l0 -55 35 0 c34 0 35 -1 35 -40 0
-40 0 -40 -37 -40 l-38 0 5 -97 5 -98 32 2 c30 3 33 0 39 -34 8 -45 -11 -63
-68 -63 -93 0 -118 41 -118 198 0 84 -2 92 -19 92 -15 0 -20 9 -23 40 -3 36
-1 40 19 40 21 0 23 4 23 55 l0 55 55 0 55 0 0 -55z m-1423 -56 c34 -13 80
-55 99 -91 8 -15 14 -54 14 -88 0 -34 -6 -73 -14 -88 -87 -167 -336 -119 -354
68 -11 118 68 210 180 210 26 0 59 -5 75 -11z m420 -9 c36 -22 68 -64 59 -79
-4 -5 -22 -15 -42 -21 -32 -11 -38 -10 -55 9 -12 12 -32 21 -50 21 -77 0 -109
-111 -50 -171 36 -36 60 -37 99 -4 29 24 31 24 66 10 20 -8 36 -19 36 -23 0
-21 -42 -71 -73 -85 -76 -37 -165 -14 -221 56 -26 32 -31 48 -34 107 -4 61 -1
75 22 114 46 79 168 112 243 66z m740 0 c52 -31 61 -60 64 -213 l4 -137 -47 0
c-43 0 -48 2 -48 22 l0 21 -24 -22 c-44 -41 -140 -37 -181 9 -25 28 -30 91
-10 129 22 43 71 63 149 60 55 -2 61 -1 58 17 -2 10 -9 25 -14 32 -14 16 -83
15 -117 -3 -27 -13 -30 -13 -51 10 -23 25 -23 25 -4 46 45 51 161 66 221 29z
m663 5 c16 -8 42 -32 57 -52 24 -31 28 -47 31 -112 2 -64 -1 -82 -20 -116 -43
-73 -113 -101 -185 -75 -15 6 -34 18 -40 27 -11 14 -13 1 -13 -75 l0 -92 -50
0 -50 0 0 250 0 250 50 0 c40 0 50 -3 50 -17 0 -14 2 -15 18 -1 9 9 24 18 32
21 30 11 92 7 120 -8z m370 -36 c0 -46 -2 -50 -20 -44 -11 3 -35 -1 -55 -10
-44 -21 -55 -58 -55 -177 l0 -88 -50 0 -50 0 0 180 0 180 50 0 c46 0 50 -2 50
-24 l0 -24 29 29 c22 21 39 29 65 29 l36 0 0 -51z m283 37 c39 -16 82 -61 96
-99 26 -69 4 -174 -46 -219 -79 -72 -214 -58 -279 28 -26 34 -29 45 -29 115 0
71 2 80 31 116 17 21 46 46 65 55 41 21 117 23 162 4z"/>
<path d="M5787 6870 c-50 -40 -43 -136 13 -165 41 -21 58 -19 91 14 24 24 29
38 29 76 0 82 -72 123 -133 75z"/>
<path d="M6928 6759 c-24 -13 -23 -56 1 -69 45 -24 95 -4 106 42 5 21 2 26
-17 32 -34 9 -71 7 -90 -5z"/>
<path d="M7589 6871 c-21 -16 -24 -28 -24 -81 0 -53 3 -65 24 -81 86 -70 181
81 101 161 -25 25 -71 26 -101 1z"/>
<path d="M8257 6870 c-53 -42 -41 -148 19 -170 87 -34 152 83 88 159 -31 37
-69 41 -107 11z"/>
<path d="M2221 7608 c-176 -122 -357 -306 -489 -501 -67 -98 -172 -284 -172
-303 0 -5 25 37 55 94 155 291 375 542 618 707 61 41 107 75 102 75 -6 -1 -57
-33 -114 -72z"/>
<path d="M1542 6765 c-17 -37 -14 -45 4 -12 9 16 14 31 11 33 -2 2 -9 -7 -15
-21z"/>
<path d="M1486 6611 c-20 -60 -36 -115 -36 -123 1 -7 19 41 40 106 22 66 38
121 36 123 -2 2 -20 -46 -40 -106z"/>
<path d="M1427 6397 c-9 -39 -19 -92 -22 -117 l-5 -45 11 45 c5 25 17 76 26
113 8 37 13 70 11 72 -2 3 -12 -28 -21 -68z"/>
<path d="M1385 6155 c-4 -42 -5 -78 -3 -81 3 -2 8 30 12 72 4 42 5 78 2 81 -2
2 -7 -30 -11 -72z"/>
<path d="M5873 6100 c0 -36 2 -50 4 -32 2 17 2 47 0 65 -2 17 -4 3 -4 -33z"/>
<path d="M1373 5995 c0 -38 2 -53 4 -32 2 20 2 52 0 70 -2 17 -4 1 -4 -38z"/>
<path d="M5884 5855 c0 -99 2 -138 3 -87 2 51 2 132 0 180 -1 48 -3 6 -3 -93z"/>
<path d="M1364 5820 c0 -58 1 -81 3 -52 2 28 2 76 0 105 -2 28 -3 5 -3 -53z"/>
<path d="M1376 5580 c5 -103 30 -286 33 -234 0 11 -4 45 -9 76 -6 30 -15 104
-20 164 l-9 109 5 -115z"/>
<path d="M5873 5600 c0 -36 2 -50 4 -32 2 17 2 47 0 65 -2 17 -4 3 -4 -33z"/>
<path d="M5852 5450 c-7 -47 -16 -101 -19 -120 -3 -19 -3 -33 0 -30 9 8 39
196 35 217 -2 10 -9 -20 -16 -67z"/>
<path d="M7933 5343 c9 -2 25 -2 35 0 9 3 1 5 -18 5 -19 0 -27 -2 -17 -5z"/>
<path d="M7833 5320 c-24 -10 -43 -22 -43 -25 0 -3 10 0 23 6 12 7 40 18 62
25 22 7 31 13 20 13 -11 0 -39 -8 -62 -19z"/>
<path d="M8001 5336 c2 -2 18 -6 34 -10 22 -5 26 -4 15 4 -14 9 -59 15 -49 6z"/>
<path d="M1411 5314 c-2 -18 32 -160 35 -149 2 6 -5 44 -15 85 -10 41 -19 70
-20 64z"/>
<path d="M8115 5289 c71 -56 102 -105 115 -184 7 -39 8 -39 9 -7 1 39 -39 130
-71 159 -13 11 -36 28 -53 38 l-30 17 30 -23z"/>
<path d="M5802 5203 c-13 -47 -21 -87 -19 -89 2 -3 14 34 27 81 13 47 21 87
19 90 -3 2 -15 -35 -27 -82z"/>
<path d="M7737 5251 c-19 -22 -40 -50 -46 -63 -11 -22 -11 -22 6 2 10 14 33
42 52 62 18 21 31 38 28 38 -2 0 -21 -18 -40 -39z"/>
<path d="M7282 5173 c70 -2 187 -2 260 0 73 1 16 3 -127 3 -143 0 -203 -2
-133 -3z"/>
<path d="M7103 5163 c9 -2 25 -2 35 0 9 3 1 5 -18 5 -19 0 -27 -2 -17 -5z"/>
<path d="M7030 5150 c-11 -8 -7 -9 15 -4 37 8 45 14 19 14 -10 0 -26 -5 -34
-10z"/>
<path d="M1451 5140 c0 -8 4 -24 9 -35 5 -13 9 -14 9 -5 0 8 -4 24 -9 35 -5
13 -9 14 -9 5z"/>
<path d="M6958 5119 c-21 -11 -38 -22 -38 -24 0 -5 79 32 89 41 12 11 -18 1
-51 -17z"/>
<path d="M5766 5085 c-3 -9 -6 -22 -5 -28 0 -7 5 -1 10 12 5 13 8 26 5 28 -2
2 -6 -3 -10 -12z"/>
<path d="M6850 5047 c-30 -24 -73 -66 -94 -93 -37 -46 -36 -46 20 12 32 33 77
74 99 92 22 17 38 31 35 32 -3 0 -30 -19 -60 -43z"/>
<path d="M1471 5073 c-2 -43 112 -299 193 -432 l57 -95 -31 -90 c-16 -49 -28
-91 -26 -93 2 -3 18 39 36 91 l32 96 -42 62 c-55 84 -141 261 -184 378 -19 52
-35 90 -35 83z"/>
<path d="M5716 4947 c-36 -85 -88 -188 -152 -297 -18 -31 -19 -37 -5 -20 50
61 212 392 199 406 -2 2 -21 -38 -42 -89z"/>
<path d="M8227 4980 c-17 -97 -92 -176 -196 -207 -127 -37 -257 17 -323 134
l-30 53 -91 1 c-51 0 -114 2 -142 3 -27 1 -104 -1 -170 -5 -94 -5 -64 -6 140
-7 l260 -2 24 -45 c28 -52 73 -95 134 -127 60 -32 172 -31 244 1 87 38 169
151 161 219 -3 22 -5 18 -11 -18z"/>
<path d="M7050 4919 c-71 -39 -81 -48 -223 -217 -131 -157 -185 -208 -279
-264 -34 -21 -57 -38 -51 -38 6 0 44 22 84 49 80 53 143 114 265 261 129 155
187 204 274 231 20 6 21 7 5 8 -11 0 -45 -13 -75 -30z"/>
<path d="M6636 4809 c-43 -50 -74 -90 -68 -88 13 6 160 179 150 179 -2 0 -39
-41 -82 -91z"/>
<path d="M6524 4689 c-27 -30 -96 -68 -162 -91 -38 -12 -46 -17 -22 -13 50 8
150 59 184 94 17 17 27 31 24 31 -3 0 -13 -9 -24 -21z"/>
<path d="M5717 4573 c105 -2 281 -2 390 0 109 1 23 2 -192 2 -214 0 -304 -1
-198 -2z"/>
<path d="M6440 4390 c-18 -12 -2 -12 25 0 13 6 15 9 5 9 -8 0 -22 -4 -30 -9z"/>
<path d="M6398 4373 c7 -3 16 -2 19 1 4 3 -2 6 -13 5 -11 0 -14 -3 -6 -6z"/>
<path d="M6343 4363 c9 -2 23 -2 30 0 6 3 -1 5 -18 5 -16 0 -22 -2 -12 -5z"/>
<path d="M5295 4310 c-27 -27 -46 -52 -43 -55 3 -3 24 17 48 45 l42 50 491 3
492 2 -490 3 -491 2 -49 -50z"/>
<path d="M1565 4083 c-42 -131 -81 -251 -86 -267 -5 -16 -8 -47 -8 -70 2 -38
2 -37 9 14 7 49 76 277 146 478 14 41 23 76 21 79 -3 2 -39 -103 -82 -234z"/>
<path d="M5185 4203 c-76 -71 -199 -159 -312 -225 -57 -33 -103 -63 -103 -67
0 -10 176 -180 225 -218 42 -32 124 -77 130 -71 2 2 -21 16 -51 32 -72 38
-308 247 -293 259 2 2 48 29 102 61 108 63 273 185 326 240 48 50 36 44 -24
-11z"/>
<path d="M2440 3860 c-19 -11 -30 -19 -25 -19 6 0 26 8 45 19 19 11 31 19 25
19 -5 0 -26 -8 -45 -19z"/>
<path d="M2531 3876 c9 -9 154 -65 184 -71 17 -3 5 4 -25 15 -30 12 -76 30
-102 41 -45 18 -66 24 -57 15z"/>
<path d="M2272 3793 c-62 -25 -111 -47 -109 -50 5 -4 237 87 237 93 0 7 -15 2
-128 -43z"/>
<path d="M4490 3815 c-41 -16 -27 -20 16 -5 28 10 33 6 159 -118 72 -70 150
-143 175 -161 25 -19 12 -4 -30 34 -41 38 -119 113 -174 167 -54 54 -101 98
-105 97 -3 0 -22 -7 -41 -14z"/>
<path d="M2789 3784 c25 -8 61 -16 80 -19 20 -3 5 4 -34 15 -79 22 -113 25
-46 4z"/>
<path d="M4382 3788 c-24 -5 -42 -12 -39 -14 5 -5 107 16 107 22 0 6 -17 4
-68 -8z"/>
<path d="M7498 3783 c6 -2 18 -2 25 0 6 3 1 5 -13 5 -14 0 -19 -2 -12 -5z"/>
<path d="M7603 3783 c9 -2 23 -2 30 0 6 3 -1 5 -18 5 -16 0 -22 -2 -12 -5z"/>
<path d="M4298 3763 c6 -2 18 -2 25 0 6 3 1 5 -13 5 -14 0 -19 -2 -12 -5z"/>
<path d="M7425 3760 c-3 -6 1 -7 9 -4 18 7 21 14 7 14 -6 0 -13 -4 -16 -10z"/>
<path d="M2935 3750 c17 -4 44 -8 60 -8 25 0 24 2 -10 9 -51 10 -92 10 -50 -1z"/>
<path d="M4248 3753 c6 -2 18 -2 25 0 6 3 1 5 -13 5 -14 0 -19 -2 -12 -5z"/>
<path d="M7739 3730 c23 -17 55 -52 71 -77 17 -26 30 -42 30 -36 0 29 -108
143 -135 143 -4 0 11 -14 34 -30z"/>
<path d="M4183 3743 c9 -2 23 -2 30 0 6 3 -1 5 -18 5 -16 0 -22 -2 -12 -5z"/>
<path d="M7372 3724 c-30 -24 -83 -100 -82 -120 1 -5 10 8 21 28 10 21 38 56
61 78 48 46 48 52 0 14z"/>
<path d="M2120 3730 c-8 -5 -10 -10 -5 -10 6 0 17 5 25 10 8 5 11 10 5 10 -5
0 -17 -5 -25 -10z"/>
<path d="M3043 3733 c9 -2 25 -2 35 0 9 3 1 5 -18 5 -19 0 -27 -2 -17 -5z"/>
<path d="M4005 3730 l-70 -6 60 -1 c33 -1 83 2 110 7 47 7 47 7 10 7 -22 0
-71 -3 -110 -7z"/>
<path d="M3140 3723 l41 -4 -3 -352 -3 -352 -32 -65 c-27 -54 -65 -98 -226
-258 -107 -106 -190 -191 -186 -190 5 2 94 89 199 193 158 157 197 201 223
255 l32 65 0 355 0 355 -43 1 -42 1 40 -4z"/>
<path d="M2070 3710 c-8 -5 -10 -10 -5 -10 6 0 17 5 25 10 8 5 11 10 5 10 -5
0 -17 -5 -25 -10z"/>
<path d="M3412 3398 l3 -323 2 317 3 317 133 4 132 3 -137 2 -138 2 2 -322z"/>
<path d="M3694 3485 c0 -132 2 -185 3 -117 2 68 2 176 0 240 -1 64 -3 9 -3
-123z"/>
<path d="M1480 3692 c-1 -41 79 -123 120 -122 8 1 2 7 -15 14 -40 18 -74 52
-91 90 -7 17 -13 25 -14 18z"/>
<path d="M1982 3679 c-29 -12 -51 -23 -49 -25 4 -4 107 33 116 42 9 9 -16 2
-67 -17z"/>
<path d="M1807 3612 c-54 -20 -94 -38 -89 -40 8 -2 192 65 201 74 10 10 -21 0
-112 -34z"/>
<path d="M5143 3614 c3 -4 32 -13 64 -20 47 -11 245 -13 1073 -12 l1015 3
-1040 5 c-788 4 -1048 8 -1075 18 -39 14 -46 15 -37 6z"/>
<path d="M1638 3563 c12 -2 32 -2 45 0 12 2 2 4 -23 4 -25 0 -35 -2 -22 -4z"/>
<path d="M7857 3515 c3 -33 7 -62 9 -64 8 -8 2 74 -7 99 -5 16 -6 4 -2 -35z"/>
<path d="M3912 3540 c0 -14 2 -19 5 -12 2 6 2 18 0 25 -3 6 -5 1 -5 -13z"/>
<path d="M3912 3470 c0 -14 2 -19 5 -12 2 6 2 18 0 25 -3 6 -5 1 -5 -13z"/>
<path d="M4935 3465 c26 -23 109 -60 181 -82 55 -16 135 -17 1119 -18 l1060
-1 -1060 6 c-937 5 -1066 8 -1110 22 -88 28 -137 48 -174 69 -24 14 -29 15
-16 4z"/>
<path d="M7851 3418 c0 -9 -4 -25 -7 -35 -5 -17 -5 -17 6 0 6 10 9 25 7 35 -4
15 -5 15 -6 0z"/>
<path d="M3911 3374 c0 -11 3 -14 6 -6 3 7 2 16 -1 19 -3 4 -6 -2 -5 -13z"/>
<path d="M7300 3353 c0 -35 100 -134 150 -148 14 -4 0 8 -30 27 -34 20 -67 52
-87 82 -18 26 -33 44 -33 39z"/>
<path d="M7817 3331 c-16 -27 -74 -83 -113 -109 -10 -7 -5 -6 11 3 17 8 39 23
50 32 28 24 79 93 73 98 -2 2 -12 -8 -21 -24z"/>
<path d="M3911 3294 c0 -11 3 -14 6 -6 3 7 2 16 -1 19 -3 4 -6 -2 -5 -13z"/>
<path d="M3922 3210 c0 -19 2 -27 5 -17 2 9 2 25 0 35 -3 9 -5 1 -5 -18z"/>
<path d="M3701 3189 c1 -19 5 -45 9 -59 6 -16 7 -6 3 30 -7 63 -13 80 -12 29z"/>
<path d="M7648 3205 c-3 -3 -34 -10 -69 -14 -56 -7 -59 -9 -19 -9 42 0 144 25
109 27 -9 1 -18 -1 -21 -4z"/>
<path d="M7488 3193 c7 -3 16 -2 19 1 4 3 -2 6 -13 5 -11 0 -14 -3 -6 -6z"/>
<path d="M3931 3154 c0 -11 3 -14 6 -6 3 7 2 16 -1 19 -3 4 -6 -2 -5 -13z"/>
<path d="M3940 3119 c-1 -45 99 -155 491 -540 228 -224 417 -409 420 -410 3
-2 -187 188 -423 424 -344 344 -434 439 -457 485 -17 31 -30 50 -31 41z"/>
<path d="M3720 3092 c0 -22 47 -129 80 -179 28 -43 911 -927 910 -912 0 3
-190 195 -423 425 -232 230 -443 446 -467 479 -24 32 -56 91 -72 130 -15 38
-27 64 -28 57z"/>
<path d="M3393 3009 c-12 -63 -68 -191 -104 -237 -11 -15 -54 -62 -96 -104
-42 -43 -71 -78 -66 -78 14 0 162 163 194 214 36 57 78 166 85 221 10 66 1 55
-13 -16z"/>
<path d="M2993 2464 c-63 -63 -113 -117 -111 -119 2 -2 57 50 123 116 66 65
116 119 112 119 -5 0 -60 -52 -124 -116z"/>
<path d="M2603 2523 c15 -2 37 -2 50 0 12 2 0 4 -28 4 -27 0 -38 -2 -22 -4z"/>
<path d="M2484 2495 c-27 -14 -63 -42 -81 -61 -34 -39 -76 -119 -71 -136 2 -6
10 9 18 33 21 63 112 153 176 173 27 8 40 15 28 15 -12 1 -43 -10 -70 -24z"/>
<path d="M2688 2513 c7 -3 16 -2 19 1 4 3 -2 6 -13 5 -11 0 -14 -3 -6 -6z"/>
<path d="M2907 2240 c9 -131 -48 -229 -165 -286 -44 -22 -168 -25 -224 -6 -73
26 -143 99 -173 180 -7 20 -14 30 -14 21 -2 -28 50 -118 87 -150 78 -69 194
-94 294 -65 78 22 159 97 187 172 21 55 26 136 11 184 -4 14 -5 -8 -3 -50z"/>
<path d="M2323 2225 c0 -33 2 -45 4 -27 2 18 2 45 0 60 -2 15 -4 0 -4 -33z"/>
<path d="M4915 2191 c-11 -5 10 -6 50 -3 39 2 72 6 74 8 8 8 -105 2 -124 -5z"/>
<path d="M5071 2181 c123 -38 196 -134 210 -276 l8 -80 -3 80 c-3 94 -32 162
-91 213 -42 38 -107 72 -132 71 -12 0 -9 -3 8 -8z"/>
<path d="M4691 1964 c0 -11 3 -14 6 -6 3 7 2 16 -1 19 -3 4 -6 -2 -5 -13z"/>
<path d="M4683 1895 c0 -27 2 -38 4 -22 2 15 2 37 0 50 -2 12 -4 0 -4 -28z"/>
<path d="M4690 1824 c0 -29 45 -116 77 -146 33 -31 119 -78 142 -78 9 0 -8 11
-37 25 -94 44 -135 86 -164 169 -9 28 -17 42 -18 30z"/>
<path d="M5262 1783 c-6 -20 -7 -32 -2 -27 10 10 25 64 18 64 -3 0 -10 -16
-16 -37z"/>
<path d="M5197 1690 c-29 -30 -67 -56 -100 -69 -28 -11 -44 -20 -34 -20 31 -1
112 46 150 88 20 23 37 43 37 46 0 8 -2 6 -53 -45z"/>
<path d="M4958 1593 c18 -2 45 -2 60 0 15 2 0 4 -33 4 -33 0 -45 -2 -27 -4z"/>
</g>
</svg>
